<?xml version="1.0" encoding="UTF-8"?>
<svg width="47px" height="47px" viewBox="0 0 47 47" version="1.1" xmlns="http://www.w3.org/2000/svg" xmlns:xlink="http://www.w3.org/1999/xlink">
    <!-- Generator: Sketch 44.1 (41455) - http://www.bohemiancoding.com/sketch -->
    <title>ap_icon_v2</title>
    <desc>Created with Sketch.</desc>
    <defs></defs>
    <g id="Page-1" stroke="none" stroke-width="1" fill="none" fill-rule="evenodd">
        <g id="ap_icon_v2" fill-rule="nonzero" fill="#FFFFFF">
            <g id="Group-2" transform="translate(0.000000, 3.000000)">
                <path d="M10.5646832,26.2136232 L0.747547758,35.3344 C-0.190052242,36.1888 -0.276452242,37.7232 0.663547758,38.6624 C1.51634776,39.6864 3.05234776,39.6864 3.98994776,38.8352 L13.9269068,29.6665105 C16.1923374,31.2984126 18.9759152,32.2624 21.9971478,32.2624 C29.5899478,32.2624 35.8211478,26.032 35.8211478,18.436 C35.8211478,10.7552 29.5899478,4.6088 21.9971478,4.6088 C14.3163478,4.6088 8.17154776,10.7552 8.17154776,18.436 C8.17154776,21.3124134 9.0526787,23.9930072 10.5646832,26.2136232 Z M31.9035478,18.3807669 C31.9035478,23.8628865 27.4262816,28.3424 21.9433682,28.3424 C16.3822619,28.3424 11.9035478,23.8628865 11.9035478,18.3807669 C11.9035478,12.8211896 16.3822619,8.3424 21.9433682,8.3424 C27.4262816,8.3424 31.9035478,12.8219135 31.9035478,18.3807669 Z" id="Shape"></path>
                <path d="M15.5321719,15.1072 L25.7581236,15.1072 C26.5397974,15.1072 27.1451478,15.7639164 27.1451478,16.6085169 L27.1451478,16.6085169 C27.1451478,17.4478497 26.54061,18.1072 25.7581236,18.1072 L15.5321719,18.1072 C14.7513106,18.1072 14.1451478,17.4478497 14.1451478,16.6085169 L14.1451478,16.6085169 C14.1459603,15.7639164 14.7513106,15.1072 15.5321719,15.1072 L15.5321719,15.1072 Z" id="Shape"></path>
                <path d="M22.955783,20.2272 L33.1384772,20.2272 C33.9557174,20.2272 34.5931478,20.827521 34.5931478,21.5121117 L34.5931478,21.8572161 C34.5931478,22.5426093 33.9557174,23.2272 33.1384772,23.2272 L22.955783,23.2272 C22.2288737,23.2272 21.5931478,22.5426093 21.5931478,21.8572161 L21.5931478,21.5121117 C21.5939999,20.8267185 22.2288737,20.2272 22.955783,20.2272 L22.955783,20.2272 Z" id="Shape"></path>
                <path d="M37.6106353,0 L46.5739478,9.56158867 L46.5739478,41.7344 L12.0979478,41.7344 L12.0979478,25.8624 C12.6947478,26.4576 14.219495,27.6345238 14.901895,28.0601238 L14.901895,39.0230145 L43.6947478,39.0230145 L43.6947478,12.0425457 L34.9667478,12.0425457 L34.9667478,2.73224297 L14.901895,2.55987422 L14.901895,8.40265312 C14.219495,8.91625313 12.6939478,10.244 12.0979478,10.8392 L12.0979478,0 L37.6106353,0 Z M37.2659468,3.56320038 L37.2659468,9.56320038 L43.2659468,9.56320038 L37.2659468,3.56320038 Z" id="Shape"></path>
            </g>
        </g>
    </g>
</svg>