<?xml version="1.0" encoding="UTF-8"?>
<svg width="36px" height="36px" viewBox="0 0 36 36" version="1.1" xmlns="http://www.w3.org/2000/svg" xmlns:xlink="http://www.w3.org/1999/xlink">
    <!-- Generator: Sketch 43.1 (39012) - http://www.bohemiancoding.com/sketch -->
    <title>ic_ap</title>
    <desc>Created with Sketch.</desc>
    <defs></defs>
    <g id="Symbols" stroke="none" stroke-width="1" fill="none" fill-rule="evenodd">
        <g id="Top-navbar---narrow-aside" transform="translate(-18.000000, -12.000000)" fill-rule="nonzero" fill="#FFFFFF">
            <g id="Top-navbar">
                <g id="Auditor-Portal" transform="translate(18.000000, 12.000000)">
                    <path d="M25.728988,22.6415094 L24.102916,22.6415094 L23.5265866,22.0857633 C25.5437393,19.7392796 26.7581475,16.6929674 26.7581475,13.3790738 C26.7581475,5.9897084 20.7684391,0 13.3790738,0 C5.9897084,0 0,5.9897084 0,13.3790738 C0,20.7684391 5.9897084,26.7581475 13.3790738,26.7581475 C16.6929674,26.7581475 19.7392796,25.5437393 22.0857633,23.5265866 L22.6415094,24.102916 L22.6415094,25.728988 L32.9331046,36 L36,32.9331046 L25.728988,22.6415094 L25.728988,22.6415094 Z M13.3790738,22.6415094 C8.25385935,22.6415094 4.11663808,18.5042882 4.11663808,13.3790738 C4.11663808,8.25385935 8.25385935,4.11663808 13.3790738,4.11663808 C18.5042882,4.11663808 22.6415094,8.25385935 22.6415094,13.3790738 C22.6415094,18.5042882 18.5042882,22.6415094 13.3790738,22.6415094 Z M15.2440335,16.6485058 C14.9472915,16.9432476 14.5622556,17.1292649 14.0887828,17.2028432 L14.0887828,14.0896956 C14.6579788,14.2264227 15.0654454,14.4254412 15.3156116,14.6830367 C15.5639205,14.940775 15.6885035,15.2505182 15.6885035,15.6056942 C15.6886464,16.0057315 15.5406326,16.351621 15.2440335,16.6485058 Z M12.7159405,11.468451 C12.3047592,11.31958 11.9997308,11.1252762 11.7968547,10.8815391 C11.5949787,10.6396594 11.4945408,10.3773492 11.4945408,10.0956087 C11.4945408,9.78586547 11.6051225,9.50398202 11.8265718,9.24824388 C12.0460208,8.99436305 12.3437629,8.81206032 12.7157976,8.70505034 L12.7157976,11.468451 L12.7159405,11.468451 Z M17.1862147,13.1984696 C16.6373063,12.6459895 15.6049243,12.1976619 14.0887828,11.8516296 L14.0887828,8.73005267 C14.7006971,8.95321635 15.0801611,9.37839888 15.2253175,10.007029 L17.6213982,9.74286146 C17.4568114,8.94478699 17.0780618,8.30758468 16.4847207,7.83139739 C15.8913796,7.35435288 15.0924479,7.06504017 14.0887828,6.96560232 L14.0887828,6.17495712 L12.7159405,6.17495712 L12.7159405,6.96560232 C11.6295534,7.05489637 10.760758,7.39721402 10.1068399,7.99069797 C9.45292171,8.58403905 9.12746277,9.31710745 9.12746277,10.1913319 C9.12746277,11.0535552 9.41591825,11.7866236 9.99254348,12.3921086 C10.5711689,12.9957364 11.4789679,13.4469214 12.7160833,13.7455206 L12.7160833,17.0902613 C12.375623,16.9535343 12.0658798,16.7302277 11.7887111,16.4204845 C11.5105423,16.1117414 11.3208103,15.7434214 11.2195151,15.3173816 L8.74785592,15.5424026 C8.93758791,16.5906433 9.37291424,17.4018618 10.0538349,17.9766297 C10.7366129,18.5522549 11.6239814,18.8955726 12.7159405,19.0081545 L12.7159405,20.4620045 L14.0887828,20.4620045 L14.0887828,18.9672936 C15.3201834,18.8184226 16.2821303,18.4148135 16.9721947,17.753466 C17.6642593,17.094976 18.0102916,16.2819002 18.0102916,15.3173816 C18.0102916,14.4560155 17.7349802,13.7492353 17.1862147,13.1984696 Z" id="ic_ap"></path>
                </g>
            </g>
        </g>
    </g>
</svg>